<?xml version="1.0" standalone="no"?>
<!DOCTYPE svg PUBLIC "-//W3C//DTD SVG 20010904//EN"
 "http://www.w3.org/TR/2001/REC-SVG-20010904/DTD/svg10.dtd">
<svg version="1.0" xmlns="http://www.w3.org/2000/svg"
 width="805.000000pt" height="855.000000pt" viewBox="0 0 805.000000 855.000000"
 preserveAspectRatio="xMidYMid meet">
<metadata>
Created by potrace 1.16, written by Peter Selinger 2001-2019
</metadata>
<g transform="translate(0.000000,855.000000) scale(0.100000,-0.100000)"
fill="#FFFFFF" stroke="none">
<path d="M6495 7086 c-88 -24 -279 -75 -425 -113 -146 -39 -359 -96 -475 -127
-435 -118 -682 -184 -735 -196 -91 -21 -130 -40 -136 -67 -12 -45 34 -75 300
-199 138 -64 253 -118 256 -121 3 -3 -8 -16 -25 -29 -53 -43 -317 -219 -390
-259 -38 -21 -85 -47 -104 -58 -33 -18 -394 -187 -551 -258 -342 -154 -586
-318 -751 -504 -179 -201 -259 -405 -293 -750 l-12 -120 -22 68 c-12 37 -29
109 -38 160 -9 50 -18 102 -20 114 -2 13 -15 30 -29 39 -20 13 -28 14 -52 2
-22 -10 -45 -48 -108 -173 -146 -289 -219 -569 -246 -940 -12 -168 -3 -392 22
-557 l10 -66 -119 -209 c-308 -538 -552 -1021 -668 -1326 -46 -119 -45 -150 3
-176 35 -18 52 -4 161 132 192 237 388 403 609 515 22 12 50 33 62 48 23 29
24 34 46 216 17 145 52 265 101 355 42 75 44 116 9 139 -21 14 -31 15 -51 6
-72 -34 -156 -262 -188 -517 -16 -129 -17 -130 -94 -170 -82 -42 -232 -148
-321 -225 -68 -61 -91 -76 -86 -59 20 64 233 473 413 794 438 779 947 1481
1509 2078 152 162 399 396 608 576 41 36 20 9 -105 -134 -517 -590 -1092
-1370 -1445 -1960 -125 -207 -139 -243 -109 -276 32 -36 58 -40 202 -29 719
52 1303 348 1674 847 90 121 239 367 274 453 22 54 24 67 13 92 -21 52 -44 48
-232 -46 -110 -56 -201 -94 -252 -107 -133 -33 -318 -38 -299 -8 3 6 133 73
288 149 318 156 399 206 522 323 151 143 269 314 370 537 71 157 199 404 263
505 64 102 181 264 192 265 7 0 109 -183 224 -400 48 -91 95 -171 103 -177 23
-18 66 -16 84 5 9 10 28 93 47 202 26 156 227 1416 263 1648 10 68 9 76 -9
100 -13 17 -31 28 -49 29 -16 1 -101 -18 -189 -41z m103 -168 c-5 -35 -34
-214 -63 -398 -30 -184 -75 -468 -100 -630 -25 -162 -53 -342 -63 -400 l-18
-105 -47 90 c-107 201 -223 397 -240 407 -30 16 -59 2 -119 -56 -156 -153
-294 -382 -527 -880 -59 -125 -139 -250 -224 -349 -128 -149 -280 -253 -566
-389 -332 -158 -382 -190 -402 -257 -21 -72 21 -119 131 -147 123 -31 342 3
515 79 44 20 81 34 83 32 5 -4 -106 -180 -163 -260 -304 -424 -817 -719 -1392
-799 -150 -21 -243 -29 -243 -21 0 21 223 377 370 590 237 346 400 565 691
932 323 407 558 678 898 1031 97 100 180 193 185 206 22 57 -33 113 -86 86
-26 -14 -176 -119 -318 -224 -467 -343 -877 -739 -1376 -1331 -141 -167 -456
-595 -645 -875 l-104 -155 -6 75 c-35 423 29 824 191 1195 l22 50 25 -85 c50
-174 107 -260 173 -260 61 0 84 50 101 220 21 221 57 394 105 515 120 298 424
542 989 790 557 244 1045 549 1069 666 11 57 -15 76 -249 183 -118 55 -212
103 -208 106 5 4 251 71 548 149 297 79 653 173 790 211 138 38 257 69 266 69
14 1 15 -7 7 -61z"/>
<path d="M5815 2039 c-189 -18 -405 -78 -632 -175 -111 -48 -227 -107 -448
-229 -443 -246 -688 -333 -828 -294 -58 16 -66 37 -64 164 1 89 -2 116 -17
144 -57 107 -175 142 -351 106 -116 -24 -204 -56 -554 -200 -369 -151 -535
-209 -666 -231 -121 -20 -122 -21 -134 -55 -23 -65 15 -86 122 -69 194 32 425
110 787 268 339 148 515 198 624 178 60 -11 70 -38 71 -186 0 -122 1 -128 27
-162 55 -72 173 -101 316 -79 179 28 407 128 846 370 385 213 635 301 943 331
114 11 309 2 424 -20 80 -15 129 20 108 77 -12 34 -37 41 -192 58 -155 16
-252 17 -382 4z"/>
</g>
</svg>

